<svg xmlns="http://www.w3.org/2000/svg" version="1.1" xmlns:xlink="http://www.w3.org/1999/xlink" xmlns:svgjs="http://svgjs.dev/svgjs" width="128" height="128" viewBox="0 0 128 128"><g transform="matrix(0.8046875,0,0,0.8046875,12.760752631578946,12.759943869819075)"><svg viewBox="0 0 95 95" data-background-color="#b0cbe8" preserveAspectRatio="xMidYMid meet" height="128" width="128" xmlns="http://www.w3.org/2000/svg" xmlns:xlink="http://www.w3.org/1999/xlink"><g id="tight-bounds" transform="matrix(1,0,0,1,-0.24049999999999727,-0.239754054687495)"><svg viewBox="0 0 95.481 95.47950810937499" height="95.47950810937499" width="95.481"><g><svg viewBox="0 0 95.481 95.47950810937499" height="95.47950810937499" width="95.481"><g><svg viewBox="0 0 95.481 95.47950810937499" height="95.47950810937499" width="95.481"><g id="textblocktransform"><svg viewBox="0 0 95.481 95.47950810937499" height="95.47950810937499" width="95.481" id="textblock"><g><svg viewBox="0 0 95.481 95.47950810937499" height="95.47950810937499" width="95.481"><g><svg viewBox="0 0 95.481 95.47950810937499" height="95.47950810937499" width="95.481"><g><svg xmlns="http://www.w3.org/2000/svg" xmlns:xlink="http://www.w3.org/1999/xlink" version="1.1" x="0" y="0" viewBox="1 1.0000000000000009 64 63.998999999999995" enable-background="new 0 0 66 66" xml:space="preserve" height="95.47950810937499" width="95.481" class="icon-icon-0" data-fill-palette-color="accent" id="icon-0"><g fill="#282a36" data-fill-palette-color="accent"><g fill="#282a36" data-fill-palette-color="accent"><path d="M50.701 33.636H1.97c-0.536 0-0.97 0.434-0.97 0.97s0.434 0.97 0.97 0.97h48.731c0.536 0 0.97-0.434 0.97-0.97S51.237 33.636 50.701 33.636z" fill="#ffffff" data-fill-palette-color="accent"></path><path d="M29.626 7.429c0.485-0.669 0.776-1.484 0.776-2.376 0-2.23-1.823-4.053-4.063-4.053-2.25 0-4.073 1.823-4.073 4.053 0 0.892 0.291 1.707 0.776 2.376C11.881 9.029 3.27 18.649 3.27 30.246c0 0.533 0.436 0.97 0.97 0.97h44.188c0.533 0 0.97-0.436 0.97-0.97C49.398 18.649 40.787 9.029 29.626 7.429zM26.339 2.94c1.173 0 2.124 0.95 2.124 2.114 0 1.183-0.95 2.133-2.124 2.133-1.183 0-2.133-0.95-2.133-2.133C24.205 3.89 25.156 2.94 26.339 2.94zM26.325 18.233c1.944 0 3.526 1.573 3.526 3.507 0 1.601-1.086 2.941-2.557 3.364v0.376c0 0.536-0.434 0.97-0.97 0.97s-0.97-0.434-0.97-0.97v-0.377c-1.46-0.425-2.537-1.763-2.537-3.363 0-0.536 0.434-0.97 0.97-0.97s0.97 0.434 0.97 0.97c0 0.87 0.703 1.577 1.567 1.577 0.875 0 1.587-0.707 1.587-1.577 0-0.864-0.712-1.567-1.587-1.567-1.934 0-3.507-1.573-3.507-3.507 0-1.604 1.077-2.946 2.537-3.372v-0.368c0-0.536 0.434-0.97 0.97-0.97s0.97 0.434 0.97 0.97v0.366c1.471 0.424 2.557 1.768 2.557 3.374 0 0.536-0.434 0.97-0.97 0.97s-0.97-0.434-0.97-0.97c0-0.875-0.712-1.587-1.587-1.587-0.865 0-1.567 0.712-1.567 1.587C24.758 17.515 25.476 18.233 26.325 18.233z" fill="#ffffff" data-fill-palette-color="accent"></path></g><g fill="#282a36" data-fill-palette-color="accent"><g fill="#282a36" data-fill-palette-color="accent"><path d="M50.144 57.795l-12.257 6.574c-0.029 0.019-0.058 0.039-0.097 0.048-0.96 0.388-1.959 0.582-2.958 0.582-1.338 0-2.667-0.349-3.869-1.038L8.991 51.366C7.76 50.6 6.926 49.378 6.674 47.991c-0.252-1.396 0.097-2.831 0.96-3.956 1.338-1.755 3.646-2.424 5.721-1.668l13.605 4.984c0.281-1.581 1.319-2.919 2.831-3.539 19.495-5.91 18.227-5.585 18.521-5.585h1.804c-0.039 0.223-0.058 0.446-0.058 0.679v18.007C50.057 57.213 50.086 57.504 50.144 57.795z" fill="#ffffff" data-fill-palette-color="accent"></path></g></g><g fill="#282a36" data-fill-palette-color="accent"><g fill="#282a36" data-fill-palette-color="accent"><path d="M62.091 35.996h-7.185c-1.61 0-2.909 1.309-2.909 2.909v18.007c0 1.61 1.299 2.909 2.909 2.909h7.185c1.6 0 2.909-1.299 2.909-2.909V38.905C65 37.305 63.691 35.996 62.091 35.996zM58.183 56.524c0 0.543-0.436 0.97-0.97 0.97s-0.97-0.427-0.97-0.97v-2.056c0-0.533 0.436-0.97 0.97-0.97s0.97 0.436 0.97 0.97V56.524z" fill="#ffffff" data-fill-palette-color="accent"></path></g></g></g></svg></g></svg></g></svg></g></svg></g></svg></g></svg></g><defs></defs></svg><rect width="95.481" height="95.47950810937499" fill="none" stroke="none" visibility="hidden"></rect></g></svg></g></svg>